<?xml version="1.0" standalone="no"?>
<!DOCTYPE svg PUBLIC "-//W3C//DTD SVG 1.1//EN" "http://www.w3.org/Graphics/SVG/1.1/DTD/svg11.dtd" >
<!--
2013-9-30: Created.
-->
<svg>
<metadata>
Created by iconfont
</metadata>
<defs>

<font id="iconfont" horiz-adv-x="1024" >
  <font-face
    font-family="iconfont"
    font-weight="500"
    font-stretch="normal"
    units-per-em="1024"
    ascent="896"
    descent="-128"
  />
    <missing-glyph />
    
    <glyph glyph-name="waimai" unicode="&#58880;" d="M212.992 739.328q34.816-6.144 63.488-15.36 23.552-8.192 44.544-19.968t23.04-29.184q1.024-8.192 1.536-28.672t0.512-49.152v-295.936q-2.048-22.528 2.048-45.056 3.072-19.456 10.752-41.984T384 174.08000000000004q16.384-18.432 36.352-29.696t39.424-17.408 36.864-7.68 28.672-1.536q23.552 3.072 53.248 10.752t56.32 38.4q13.312 15.36 21.504 32.768t13.312 31.744q5.12 17.408 9.216 34.816l2.048 407.552q4.096 9.216 10.24 18.432 5.12 8.192 14.848 15.872t25.088 12.8q14.336 5.12 28.672 9.216t25.6 6.144q13.312 3.072 26.624 5.12v-452.608q-1.024-36.864-7.168-69.632-6.144-28.672-18.944-56.832t-37.376-45.568q-50.176-35.84-109.056-54.272t-122.368-20.48q-30.72-1.024-62.976 3.584T391.68 58.879999999999995t-56.32 20.992-45.568 26.624q-20.48 14.336-34.816 36.352t-24.064 46.08-14.336 48.128-4.608 43.52V529.408q0 94.208 1.024 209.92z"  horiz-adv-x="1024" />

    
    <glyph glyph-name="icon_fuwu" unicode="&#58883;" d="M304.132337 462.635227s65.590296-174.514198 204.386415-174.514198c138.7917 0 209.653434 170.415909 209.653435 170.415909s47.434103 11.130555 55.63289 59.150128c8.198787 48.019573 5.856908 98.385444-27.52371 98.385445 0 0 2.927349 136.45203-55.637309 188.569892C632.086027 856.766893 591.673144 896 529.595666 896c-62.070849 0-125.906945-5.271438-168.074029-73.786874 0 0-55.045211-31.040948-70.276264-72.034883-15.224425-40.993935-18.737244-99.551965-8.779839-127.661146 0 0-12.297076-12.884755-19.914811-23.42984-7.613317-10.538457-23.425421-40.406256-9.367518-76.714223 12.884755-36.307967 31.624208-52.120071 50.949132-59.737807z m29.28012 139.37717c19.910393 50.365871 42.164875 109.515999 66.175766 134.112361 5.859117 5.852489 15.226634 5.273647 19.910393-1.758619 11.130555-16.985253 40.408465-48.019573 110.094841-69.690795 75.547702-23.423212 135.285509-26.933822 159.296401-26.933822 7.025638 0 12.884755-5.273647 14.051276-12.299285 2.931768-21.081333 6.444587-65.590296-12.297076-110.68252-25.762882-61.492007-87.840359-180.373315-166.315411-180.373315-78.472842 0-161.633861 79.641572-179.204584 142.30452 0 0-35.134818 66.177975-11.711606 125.321475z m235.422944-431.603945c-1.760828 20.495863-10.540666 70.276264-20.495863 77.887373-8.786466 7.032266-11.126136 13.472434-32.795148 14.643373h-7.025638c-21.671221-1.17094-24.01531-7.611108-32.795148-14.643373-9.959615-7.611108-18.741663-56.80383-20.498072-77.887373-1.758619-20.495863 33.963878-29.27791 26.936031-29.27791s-25.181831-18.156193-26.936031-24.01531c-1.758619-5.85028 55.045211-141.71905 56.220569-145.815129 1.17094 4.09608 58.562449 139.37717 56.216151 145.815129-1.7542 5.859117-19.910393 24.01531-26.933822 24.01531-7.034475 0 29.28012 8.779838 28.106971 29.27791z m0 0M895.032682 86.080912c1.751991 30.455478-1.760828 39.818577-46.853052 114.195339-45.092224 74.376762-151.676455 100.731742-159.289772 99.558594-7.611108-1.17094-176.858286-404.667914-176.858287-404.667914S343.372072 298.659486 335.171076 299.832635c-7.613317 1.173149-114.195339-25.179622-159.289773-99.558593C130.782451 125.899489 127.271841 115.946502 129.03046 86.080912c1.751991-30.455478-4.685968-166.90309-0.58547-178.033645 4.098289-10.538457 9.369727-29.28012 35.720288-33.966087 26.357189-4.681549 347.866293 0 347.866293 0s321.509104-4.681549 347.859665 0c26.357189 4.685968 31.043157 23.427631 35.722498 33.966087 4.098289 10.545085-2.929559 147.578167-0.581052 178.033645z m-115.956167-70.863943c-0.58547-0.587679-8.784257-0.587679-19.322714-0.58768h-106.58865c-3.512819 0-5.852489 0-5.852489 0.58768-1.173149 1.173149 0.587679 3.512819 1.7542 5.856907 1.758619 2.341879 53.291011 57.393719 64.421566 57.393719 11.126136 0 63.243998-55.051839 64.417147-57.393719 0.58547-1.75641 1.75641-4.681549 1.17094-5.856907z m0 0"  horiz-adv-x="1024" />

    
    <glyph glyph-name="icon-fenxiang" unicode="&#58882;" d="M810.347 95.38099999999997c0-23.552-19.115-42.666-42.667-42.666h-576c-23.552 0-42.667 19.114-42.667 42.666V628.7149999999999c0 23.552 19.115 42.666 42.667 42.666h277.333v64h-320c-35.328 0-64-28.65-64-64v-618.666c0-35.328 28.672-64 64-64h661.334c35.349 0 64 28.672 64 64V266.048h-64v-170.667zM929.62 618.688L757.44 790.869c-12.501 12.502-32.747 12.502-45.248 0-12.501-12.48-12.501-32.746 0-45.248l98.56-98.56C586.048 651.35 379.328 493.568 307.2 277.696l59.2-28.416c63.616 192.341 275.541 353.515 478.208 330.603l-131.861-131.84c-12.374-12.395-12.374-32.491 0-44.886 12.394-12.394 32.469-12.394 44.885 0l166.955 166.976c1.685 1.131 3.541 1.835 5.013 3.328 12.523 12.459 12.523 32.726 0.021 45.227z"  horiz-adv-x="1024" />

    
    <glyph glyph-name="duigou" unicode="&#58884;" d="M512-128A512 512 0 1 0 512 896a512 512 0 0 0 0-1024zM242.56 376.96000000000004l166.272-163.456a64 64 0 0 1 90.368 0.64L787.456 505.28a32 32 0 0 1-45.44 44.992l-288.32-291.2-166.272 163.52a32 32 0 1 1-44.864-45.632z"  horiz-adv-x="1024" />

    
    <glyph glyph-name="icon-dingdan" unicode="&#58885;" d="M825.7 750H691.3c-6.3 27.5-31.7 48.7-61.4 48.7h-66.6c-8.5 21.2-28.6 34.9-51.8 34.9-23.3 0-43.4-13.8-51.8-34.9H392c-29.6 0-55-21.2-61.4-48.7H196.2c-34.9 0-61.4-28.6-61.4-63.5v-683.4c0-34.9 27.5-63.5 61.4-63.5h628.4c34.9 0 64.5 28.6 64.5 63.5V686.5c1.1 34.9-28.5 63.5-63.4 63.5z m-313.2-30.7c28.6 0 50.8-23.3 50.8-50.8 0-28.6-23.3-50.8-50.8-50.8-28.6 0-50.8 23.3-50.8 50.8s22.3 50.8 50.8 50.8z m193.6-525.8c0-12.7-10.6-23.3-23.3-23.3H342.2c-12.7 0-23.3 10.6-23.3 23.3v21.2c0 12.7 10.6 23.3 23.3 23.3h340.6c12.7 0 23.3-10.6 23.3-23.3v-21.2z m0 214.8c0-12.7-10.6-23.3-23.3-23.3H342.2c-12.7 0-23.3 10.6-23.3 23.3v21.2c0 12.7 10.6 23.3 23.3 23.3h340.6c12.7 0 23.3-10.6 23.3-23.3v-21.2z"  horiz-adv-x="1024" />

    
    <glyph glyph-name="icon-jiantou1" unicode="&#58886;" d="M302.007 826.676a18.605 18.605 0 0 1-12.065 4.432c-10.317 0-18.676-8.362-18.676-18.678 0-4.656 1.713-8.905 4.533-12.173l-0.008-0.008 0.105-0.104c0.701-0.8 428.766-416.039 428.766-416.039S276.594-31.514999999999986 275.896-32.31299999999999l-0.106-0.105 0.005-0.006c-2.817-3.27-4.533-7.518-4.533-12.174 0-10.314 8.363-18.675 18.676-18.676 4.774 0 9.126 1.789 12.428 4.733l442.213 428.667s13.047 14.583 0 27.631c0 0-441.919 428.351-442.436 428.797l-0.134 0.128-0.003-0.003z"  horiz-adv-x="1024" />

    
    <glyph glyph-name="icon-person" unicode="&#58887;" d="M856.166 86.42600000000004A425.114 425.114 0 0 1 977.05 384 426.598 426.598 0 0 1 550.4 810.65 426.65 426.65 0 0 1 246.477 84.52999999999997l192.256 117.607 30.617 69.53c-34.764 28.722-57.6 72.294-57.6 118.732V504.883a135.168 135.168 0 0 0 270.285 0V390.4c0-46.336-23.091-90.624-58.317-119.757l29.748-68.557 202.7-115.66zM550.4-128c-282.726 0-512 229.274-512 512 0 282.778 229.274 512 512 512s512-229.222 512-512c0-282.726-229.274-512-512-512z"  horiz-adv-x="1126" />

    
    <glyph glyph-name="icon-jiantou2" unicode="&#58888;" d="M681.472 820.928c6.143 0 12.288-2.336 16.96-7.041 9.376-9.376 9.376-24.576 0-33.952L322.208 403.711l401.568-401.568c9.376-9.376 9.376-24.576 0-33.952s-24.576-9.376-33.952 0L254.336 403.712 664.512 813.92c4.672 4.672 10.816 7.007 16.96 7.008z"  horiz-adv-x="1024" />

    
    <glyph glyph-name="jia" unicode="&#58889;" d="M510.97 896C228.784 896 0 667.216 0 385.03c0-282.214 228.784-510.97 510.97-510.97 282.214 0 510.97 228.784 510.97 510.97C1021.968 667.216 793.184 896 510.97 896z m307.61-542.722H567.492v-285.137c0-23.495-19.04-42.561-42.562-42.561-23.523 0-42.561 19.066-42.561 42.561V353.278H194.337c-23.522 0-42.562 19.04-42.562 42.561 0 23.524 19.04 42.562 42.562 42.562h288.03V692.412c0 23.524 19.04 42.562 42.562 42.562 23.523 0 42.562-19.04 42.562-42.562v-253.98h251.086c23.495 0 42.562-19.04 42.562-42.562 0.002-23.523-19.065-42.592-42.56-42.592z"  horiz-adv-x="1024" />

    
    <glyph glyph-name="icon-geren" unicode="&#58890;" d="M386.048 393.557a227.556 227.556 0 1 0 251.876 0c174.222-53.731 300.743-215.978 300.743-407.78a28.444 28.444 0 0 0-28.445-28.444H113.778a28.444 28.444 0 0 0-28.445 28.445c0 191.8 126.578 354.048 300.715 407.78z"  horiz-adv-x="1024" />

    
    <glyph glyph-name="icon-search" unicode="&#58891;" d="M240.776 655.1279999999999A302.952 302.952 0 0 1 157.328 384c18.048 81.912 60.48 161.952 126.576 228.096C350.048 678.264 430.088 720.672 512 738.72c-95.28 17.952-197.52-9.864-271.224-83.592zM959.6 93.26400000000001L845.504 207.36a110.64 110.64 0 0 1-87 31.992c107.304 155.208 91.8 369.744-46.392 507.96-155.568 155.616-407.856 155.616-563.472 0-155.568-155.616-155.568-407.928 0-563.544 138.192-138.216 352.56-153.6 507.864-46.296-2.4-31.2 8.304-63.312 31.992-87l114.096-114.12c43.2-43.104 113.784-43.104 156.888 0 43.32 43.104 43.32 113.712 0.12 156.912zM665.84 230.15999999999997c-130.008-130.008-340.68-130.008-470.64 0-130.008 130.008-130.008 340.728 0 470.736 129.96 130.008 340.632 130.008 470.64 0 129.984-129.912 129.984-340.728 0-470.736z"  horiz-adv-x="1024" />

    
    <glyph glyph-name="icon-close" unicode="&#58892;" d="M589.704 394.326L998.27 802.893c20.652 20.653 20.652 54.556 0 75.209l-2.237 2.237c-20.652 20.652-54.556 20.652-75.208 0L512.258 471.255 103.691 880.511c-20.652 20.652-54.556 20.652-75.208 0l-2.238-2.237c-21.168-20.652-21.168-54.556 0-75.208l408.568-408.74L26.245-14.240000000000009c-20.652-20.652-20.652-54.556 0-75.208l2.238-2.238c20.652-20.652 54.556-20.652 75.208 0l408.567 408.568 408.568-408.568c20.652-20.652 54.556-20.652 75.208 0l2.237 2.238c20.652 20.652 20.652 54.556 0 75.208L589.704 394.326z"  horiz-adv-x="1024" />

    
    <glyph glyph-name="icon-favorite" unicode="&#58893;" d="M563.2 32c-5.6-3.2-12-4-17.6-0.8-4 1.6-99.2 43.2-195.2 121.6C220.8 258.4 152 380 152 504.8c0 103.2 53.6 189.6 144 229.6 85.6 37.6 185.6 24.8 260-33.6 88 58.4 192 69.6 274.4 28.8 80.8-40.8 127.2-122.4 127.2-224 0-119.2-68.8-239.2-198.4-346.4-92.8-77.6-184-121.6-193.6-126.4-1.6 0-2.4 0-2.4-0.8z"  horiz-adv-x="1159" />

    
    <glyph glyph-name="icon-sousuo" unicode="&#58894;" d="M783.664128 215.22636799999998c-60.741632 60.778496 155.569152-149.32992 155.569152-149.32992l-74.20928-73.765888S560.519168 293.42719999999997 710.455296 143.33952C567.552 38.72460799999999 363.99104 53.02988800000003 231.79776 185.29587200000003 86.096896 331.1104 83.100672 564.03456 225.083392 706.131968c142.02368 142.096384 374.797312 139.10016 520.496128-6.673408C879.4112 565.51424 892.478464 358.40204800000004 783.664128 215.22636799999998zM296.69376 634.483712c-102.8608-102.89664-100.622336-272.484352 4.875264-378.057728 105.498624-105.5744 274.97472-107.771904 377.79456-4.876288 102.8608 102.936576 100.703232 272.524288-4.835328 378.097664-105.4976 105.5744-274.973696 107.731968-377.834496 4.836352z"  horiz-adv-x="1024" />

    
    <glyph glyph-name="icon-vip" unicode="&#58895;" d="M573.446 461.625c-26.929-11.085-51.613-25.868-74.055-44.346-22.441-18.48-41.842-39.601-58.21-63.361-16.366-23.757-29.04-49.763-38.016-78.012-8.976-28.248-13.464-57.949-13.464-89.099 0-27.456 3.565-53.72 10.692-78.8 7.125-25.08 17.027-48.712 29.701-70.885H408.71c-15.31 0-33.127 0.524-53.458 1.582-20.325 1.057-41.312 2.511-62.96 4.36a2550.747 2550.747 0 0 0-64.547 6.33c-21.388 2.376-40.79 4.888-58.212 7.526-17.427 2.637-32.21 5.28-44.352 7.922-12.146 2.633-19.801 5.276-22.965 7.916-5.81 4.226-10.163 17.293-13.07 39.201-2.902 21.915-1.717 50.034 3.563 84.347 2.108 13.201 6.47 24.03 13.065 32.474 6.604 8.45 14.655 15.706 24.16 21.776 9.501 6.076 20.065 10.96 31.682 14.655a1141.222 1141.222 0 0 0 35.64 10.695c12.14 3.433 23.89 7.129 35.237 11.09 11.355 3.958 21.782 8.84 31.287 14.649 11.086 6.867 19.67 13.597 25.74 20.196 6.07 6.6 10.433 13.066 13.069 19.406a50.933 50.933 0 0 1 3.958 19.798c0 6.866-0.261 14.517-0.794 22.966-1.056 12.144-5.277 21.778-12.67 28.906-7.393 7.126-15.573 14.393-24.551 21.78-4.224 3.697-8.049 8.845-11.484 15.45a197.006 197.006 0 0 0-9.107 20.192 1353.6 1353.6 0 0 0-7.917 24.554c-3.698 1.052-7.394 2.902-11.09 5.543-3.169 2.636-6.6 6.332-10.296 11.086-3.697 4.753-6.86 11.618-9.501 20.596-2.641 8.973-3.702 17.156-3.17 24.546 0.529 7.393 2.109 13.996 4.75 19.8 2.116 5.81 5.543 11.357 10.299 16.633 0 20.064 1.052 40.127 3.164 60.19 2.113 16.9 5.81 35.112 11.091 54.648 5.28 19.54 13.464 36.964 24.55 52.274 10.562 14.787 21.913 26.795 34.056 36.035 12.145 9.24 24.816 16.499 38.018 21.775 13.198 5.286 26.262 8.846 39.2 10.697 12.936 1.85 25.474 2.772 37.615 2.772 15.316 0 30.493-1.716 45.543-5.148 15.047-3.434 29.173-8.05 42.372-13.86 13.202-5.808 24.943-12.408 35.245-19.8 10.29-7.393 18.347-14.783 24.15-22.175 13.73-16.895 23.76-35.507 30.098-55.833 6.337-20.33 10.829-39.733 13.462-58.215 2.644-21.116 3.961-42.501 3.961-64.15 3.697-2.64 6.6-6.071 8.713-10.295 2.112-3.698 3.83-8.45 5.147-14.255 1.322-5.808 1.455-12.937 0.4-21.385-1.057-11.62-3.303-20.726-6.733-27.326-3.435-6.599-7.26-11.746-11.488-15.442-4.75-4.222-9.765-7.129-15.045-8.712a245.178 245.178 0 0 1-3.165-10.291l-3.963-11.095c-1.058-3.693-2.38-7.652-3.96-11.88z m113.25-25.336c34.323 0 66.66-6.603 97.02-19.8 30.359-13.204 56.764-31.155 79.198-53.857 22.443-22.704 40.264-49.233 53.458-79.592 13.203-30.364 19.802-62.699 19.802-97.023 0-34.32-6.594-66.659-19.802-97.018-13.199-30.359-31.015-56.884-53.458-79.59-22.434-22.71-48.838-40.53-79.198-53.464-30.36-12.936-62.698-19.4-97.02-19.4-34.846 0-67.45 6.47-97.81 19.4-30.356 12.938-56.76 30.754-79.198 53.464-22.44 22.706-40.26 49.233-53.458 79.59-13.203 30.36-19.801 62.698-19.801 97.018 0 34.324 6.6 66.66 19.8 97.023 13.2 30.358 31.02 56.888 53.459 79.592 22.438 22.702 48.842 40.653 79.198 53.856 30.359 13.199 62.963 19.8 97.81 19.8z m145.725-201.167c3.173 10.556 1.717 20.192-4.354 28.91-6.071 8.71-14.121 14.913-24.155 18.61-10.03 3.693-20.064 3.958-30.099 0.79-10.029-3.17-17.418-11.353-22.17-24.55a1722.206 1722.206 0 0 0-7.528-24.954 936.888 936.888 0 0 1-7.127-24.151c-2.373-8.451-5.275-17.555-8.712-27.329-3.43-9.765-7.788-20.986-13.068-33.657-5.278-13.724-12.804-20.196-22.571-19.4-9.768 0.792-17.292 6.464-22.571 17.027-5.81 10.56-11.224 21.91-16.235 34.052a12233.838 12233.838 0 0 0-14.654 35.64 1971.518 1971.518 0 0 0-12.674 31.68c-3.693 9.507-6.861 17.165-9.506 22.977-4.22 8.443-11.214 13.194-20.982 14.248-9.768 1.056-19.278-0.396-28.513-4.352-9.24-3.96-16.895-10.167-22.967-18.614-6.07-8.45-6.997-17.689-2.772-27.719a4259.535 4259.535 0 0 1 12.668-35.64 2001.121 2001.121 0 0 1 15.05-40.393 2008.94 2008.94 0 0 0 15.048-40.393c4.753-13.197 8.973-24.55 12.67-34.052 7.92-20.063 19.935-35.115 36.034-45.144 16.11-10.036 33-15.314 50.69-15.839 17.685-0.53 34.583 3.434 50.688 11.878 16.107 8.448 27.853 21.12 35.241 38.015a2697.616 2697.616 0 0 1 17.818 43.165 3664.94 3664.94 0 0 1 17.43 43.955c5.54 14.256 10.692 27.986 15.44 41.186 4.754 13.2 8.713 24.55 11.88 34.054z m0 0"  horiz-adv-x="1024" />

    
    <glyph glyph-name="icon-shouji" unicode="&#58896;" d="M756.863555 895.99911H266.432446s-70.399872 1.086998-70.399872-72.832868l-0.255-878.716404S189.120586-127.99902999999995 262.784453-127.99902999999995h497.279096s68.222876-1.087998 68.222876 69.503874V823.166242S830.462422 895.99911 756.863555 895.99911z m-245.439554-953.341268c-19.455965 0-35.199936 15.743971-35.199936 35.327935 0 19.455965 15.743971 35.199936 35.199936 35.199937s35.199936-15.743971 35.199936-35.199937c0-19.583964-15.743971-35.327936-35.199936-35.327935zM759.295551 83.84058500000003H263.552451V789.949303h495.7431v-706.108718z m0 0"  horiz-adv-x="1024" />

    
    <glyph glyph-name="icon-thumb_down" unicode="&#58897;" d="M958.88 370.51700000000005c-8.343 58.224-114.549 409.896-128.934 435.665-9.827 17.611-26.706 26.079-50.269 25.859-41.822-0.797-104.374-1.116-164.874-1.424-164.993-0.837-217.917-1.624-227.625-4.911-39.984-13.488-59.08-43.73-58.373-92.43l1.39-94.602c1.599-107.701 3.078-207.672 4.318-321.539 0.199-18.777 6.44-31.836 20.854-43.65 11.68-9.573 24.061-18.209 36.03-26.557 58.179-40.572 118.335-82.539 128.699-253.992 0.025-0.418 0.07-0.827 0.13-1.225 3.043-20.62 13.398-37.315 29.152-47.007 9.314-5.728 19.962-8.626 31.184-8.626 7.436 0 15.121 1.275 22.831 3.845 17.024 5.668 59.314 24.515 84.208 77.02 30.466 64.27 25.077 155.206-15.988 270.538 45.722 0.628 157.184 2.201 214.71 3.138 26.885 0.428 46.952 8.198 59.638 23.07 11.968 14.044 16.316 33.16 12.919 56.828zM247.114 824.392c-36.159-0.388-72.314-0.946-108.468-1.574-36.717-0.638-51.002-14.723-52.705-51.968-2.714-59.339-7.571-154.22-12.023-241.232-5.14-100.449-9.583-187.192-9.901-202.811-0.309-15.151 3.611-26.955 11.64-35.103 7.944-8.049 19.539-12.133 34.481-12.133h0.553c47.475 0.339 91.136 0.956 133.461 1.922 38.127 0.867 55.654 18.986 55.16 57.028-1.016 77.598-5.2 363.825-6.375 440.835-0.534 34.855-11.108 45.046-45.823 45.036z"  horiz-adv-x="1024" />

    
    <glyph glyph-name="icon-thumb_up" unicode="&#58898;" d="M263.923 8.267000000000053c-16.148-0.54-74.107 0-74.445 0-20.77 0-39.219 20.163-43.91 47.316L112.1 433.606c0 28.28 22.102 59.312 51.556 59.312v-0.202l126.653-0.383c2.143 0 4.263 0.247 6.427 0.337v-462.436a1677.504 1677.504 0 0 1-15.247-11.298c-5.343-4.084-14.319-10.285-17.566-10.67zM889.93 229.52999999999997h-5.098l0.473-34.348c4.082-1.534 19.327-6.112 19.349-35.972-0.022-32-41.994-44.88-77.354-44.833h0.111l-0.61-32.768c14.345-3.204 19.577-15.787 19.554-35.926 0-35.182-28.597-60.51-102.861-60.51H450.857c-14.007 0-42.444 8.143-58.84 16.08-15.47 7.465-40.143 21.38-48.758 26.115V484.506c73.612 20.388 134.322 83.895 149.636 113.213 16.666 38.857 25.055 79.406 25.055 168.398 0 44.226 16.216 50.157 33.512 50.157 15.268 0 39.534-16.847 51.803-36.084 36.31-56.764 44.858-179.066-0.338-270.673l-5.864-39.669h254.03c44.158-2.413 92.014-12.45 92.014-45.059l-0.294-10.217c0.068-0.406-1.15-28.281-15.921-40.528-12.36-10.304-22.42-10.667-22.42-10.667l-0.316-33.806s14.997-2.03 22.802-7.4c11.772-8.093 17.094-23.407 16.487-40.076-0.765-21.173-33.398-52.565-53.515-52.565z"  horiz-adv-x="1024" />

    
    <glyph glyph-name="icon-jifen" unicode="&#58899;" d="M500.407 896c-7.537 0-15.023-0.158-22.447-0.428-15.507-0.557-27.54-13.165-26.953-28.096 0.618-14.967 13.634-26.622 29.086-26.06v0.04c6.766 0.236 13.517 0.404 20.308 0.404 283.683-0.546 513.159-222.327 513.67-496.59 0-171.438-89.773-322.433-226.502-411.696-12.838-8.39-16.165-25.243-7.515-37.658 5.392-7.741 14.236-11.894 23.252-11.894a28.756 28.756 0 0 1 15.63 4.597c151.486 98.912 251.174 266.614 251.199 456.65C1070.125 649.4300000000001 815.095 896 500.407 896zM525.91 368.076c0.982 0 2.101 0.089 3.327 0.265l0.74 0.053H655.93c4.465 0 5.826 1.358 5.826 5.817V506.8c0 1.549 0 4.4-6.375 5.827H527.762c-2.592 0-5.817 0-5.817-8.036v-130.82l-0.073-0.43c-0.422-2.5-0.14-3.9 0.265-4.379 0.363-0.428 1.544-0.887 3.773-0.887zM483.287 806.283C216.373 806.283 0 597.1320000000001 0 339.13S216.367-128 483.277-128c266.915 0 483.298 209.14 483.298 467.131 0 257.995-216.373 467.152-483.288 467.152z m-90.07-543.489c-2.32 3.082-5.089 6.627-8.281 10.605v-166.807l-0.023-0.24c-1.203-13.076-8.38-29.11-35.732-31.25l-0.393-0.03-0.392 0.028c-29.578 2.144-35.787 18.438-35.787 31.73V226.04899999999998c-6.561-16.819-13.729-31.104-21.36-42.555l-0.124-0.18c-9.12-12.523-20.124-18.872-32.709-18.872-5.621 0-11.587 1.3-17.732 3.864l-0.487 0.234c-13.183 7.18-25.783 21.52-10.934 49.055l0.162 0.278c32.404 52.125 58.353 113.347 77.174 182.06h-50.641c-14.478 0-31.735 6.273-31.735 36.158l0.015 0.393c1.638 21.703 13.996 34.069 35.739 35.76l0.405 0.015h52.226v45.738c-5.507-1.061-12.419-2.106-20.654-3.122l-0.64-0.04h-21.777c-3.46-0.424-6.763-0.638-9.826-0.638-25.554 0-33.365 14.744-35.417 27.113l-0.07 0.425v0.43c0 23.04 12.911 37.801 37.338 42.686l0.508 0.102h17.908c52.401 5.809 92.264 11.713 118.482 17.551l0.4 0.073c2.969 0.424 5.85 0.636 8.564 0.636 18.391 0 31.167-9.88 36.946-28.571l0.174-0.563 0.044-0.588c1.638-21.737-9.685-35.857-32.752-40.839a5776.385 5776.385 0 0 0-17.61-4.4l-0.62-0.155h-8.67v-55.84l35.03-0.022c9.888-0.909 21.462-5.24 27.445-19.113v79.964c-1.605 17.963 1.634 31.514 9.631 40.276 7.708 8.445 19.622 12.348 35.491 11.59h187.6c20.204 0.81 35.195-3.768 44.612-13.614 8.377-8.758 12.26-21.586 11.542-38.13v-189.806c0.752-16.513-2.76-28.964-10.437-37.009-6.782-7.106-16.681-10.709-29.42-10.709-2.416 0-4.975 0.13-7.61 0.387H488.142c-1.236-0.07-2.459-0.105-3.636-0.105h-0.002c-11.565 0-20.63 3.37-26.946 10.012-7.563 7.954-10.976 20.548-10.147 37.435v74.686c-6.055-14.59-17.847-18.166-27.922-18.166h-34.552v-8.515a7180.41 7180.41 0 0 1 12.162-16.215c29.875-37.366 46.516-58.35 50.871-64.145l0.425-0.666c11.472-21.34 9.682-39.768-5.32-54.777l-0.432-0.386c-7.13-5.706-14.36-8.6-21.49-8.6-9.771 0-19.126 5.384-27.806 16.003l-0.13 0.163z m174.51-32.48c-26.578-48.72-61.036-95.919-102.434-140.309l-0.482-0.454c-10.236-8.508-20.757-12.822-31.268-12.822h-0.001c-9.49 0-18.994 3.518-28.244 10.456l-0.409 0.307-0.342 0.38c-10.59 11.78-18.386 30.641 4.618 53.6 30.402 30.402 60.592 72.388 89.725 124.787l0.116 0.198c9.041 14.695 20.422 22.146 33.827 22.146 6.048 0 12.517-1.569 19.222-4.662l0.557-0.3c21.505-13.278 26.732-31.719 15.115-53.327z m170.395-136.831l-0.413-0.242-0.45-0.163c-4.87-1.758-9.562-2.65-13.94-2.65h-0.002c-12.415 0.002-22.481 6.87-29.92 20.412-32.077 52.473-60.206 94.668-83.606 125.412-6.634 9.095-9.223 17.841-7.756 26.08 1.541 8.66 7.547 16.535 17.853 23.413l0.207 0.132c16.502 9.923 34.51 7.553 52.399-7.066l0.456-0.372 0.36-0.465c30.897-39.705 59.333-85.346 84.52-135.659l0.287-0.692c6.628-19.975-0.285-36.621-19.995-48.14z"  horiz-adv-x="1071" />

    
    <glyph glyph-name="jiantou" unicode="&#58900;" d="M730.026734 896c18.713977 0 37.429954-7.144991 51.714937-21.429974 28.570965-28.572965 28.570965-74.857909 0-103.426874L394.527143 384.000625l387.214528-387.142527c28.570965-28.536965 28.570965-74.857909 0-103.428874s-74.857909-28.570965-103.428874 0L239.314333 332.286688C225.59935 346.000671 217.886359 364.57264899999996 217.886359 384.000625s7.712991 37.999954 21.427974 51.713937L678.311797 874.572026C692.59778 888.856009 711.312757 896 730.026734 896z"  horiz-adv-x="1024" />

    
    <glyph glyph-name="icon-xuanxiang" unicode="&#58901;" d="M1163.636 802.91H46.546a46.545 46.545 0 0 0 0 93.09h1117.09a46.545 46.545 0 0 0 0-93.09z m-276.48-465.455H46.546a46.545 46.545 0 0 0 0 93.09h837.818a46.545 46.545 0 1 0 0-93.09zM671.186-128H46.545a46.545 46.545 0 0 0 0 93.09h624.64a46.545 46.545 0 1 0 0-93.09z"  horiz-adv-x="1210" />

    
    <glyph glyph-name="icon-keyboard" unicode="&#58902;" d="M242.005-104.33399999999995c-29.013 27.875-28.444 74.524 0 102.969L627.485 384l-385.48 385.365c-28.444 28.445-28.444 74.525 0 102.97s74.525 28.444 102.97 0l437.02-436.907c15.587-13.768 38.912-61.327 0-102.97l-437.02-436.906c-20.595-21.732-67.243-34.247-102.97 0.114z"  horiz-adv-x="1024" />

    
    <glyph glyph-name="icon-remove_circl" unicode="&#58903;" d="M678.4 345.6H345.6a38.4 38.4 0 1 0 0 76.8h332.8a38.4 38.4 0 1 0 0-76.8M512 793.6A409.6 409.6 0 0 1 102.4 384a409.6 409.6 0 1 1 819.2 0A409.6 409.6 0 0 1 512 793.6"  horiz-adv-x="1024" />

    
    <glyph glyph-name="icon_shoppingcart" unicode="&#58954;" d="M1038.969905 731.769905c21.699048 0 38.424381-2.925714 50.127238-8.777143 5.851429-2.584381 10.873905-5.461333 15.11619-8.777143a42.22781 42.22781 0 0 0 9.898667-11.312762c5.168762-8.289524 7.119238-17.115429 6.436571-26.282667 0-3.364571-0.390095-6.485333-0.731428-9.313523-0.390095-2.925714-0.926476-5.705143-1.219048-8.192a43.349333 43.349333 0 0 0-1.950476-7.558096l-14.969905-41.398857-23.795809-68.851809-26.428953-73.97181c-10.825143-31.744-17.408-51.395048-19.943619-58.855619a217.478095 217.478095 0 0 0-16.969143-37.059047 89.234286 89.234286 0 0 0-20.675047-24.380953c-15.067429-11.702857-33.54819-17.603048-55.198476-17.603047H342.113524l17.603047-99.913143h571.538286c36.717714 0 55.003429-15.408762 55.003429-46.32381 0-15.11619-3.705905-27.989333-11.166476-38.863238-6.729143-10.825143-20.967619-16.335238-42.666667-16.335238H337.188571a83.72419 83.72419 0 0 0-26.965333 4.388571 38.521905 38.521905 0 0 0-10.727619 5.656381 83.382857 83.382857 0 0 0-25.014857 26.282667 180.857905 180.857905 0 0 0-17.554286 35.206095 730.550857 730.550857 0 0 0-8.777143 36.278857l-6.192762 32.670477-12.531809 63.536762-16.286476 86.406095-18.822096 96.499809-48.859428 251.904H60.17219c-11.702857 0-20.918857 2.584381-27.599238 7.558096a116.784762 116.784762 0 0 0-20.041142 19.99238A103.033905 103.033905 0 0 1 6.826667 808.228571a49.639619 49.639619 0 0 0-4.388572 12.580572A144.481524 144.481524 0 0 0 0 844.55619C0 859.672381 5.022476 872.155429 15.018667 882.200381 20.870095 886.345143 27.209143 889.660952 33.840762 892.245333 40.472381 894.683429 48.030476 896 56.417524 896H171.641905c15.018667 0 27.209143-2.096762 36.327619-6.290286 4.193524-2.486857 8.143238-5.022476 11.849143-7.558095 3.803429-2.486857 7.363048-5.412571 10.727619-8.777143 4.973714-7.460571 8.338286-14.57981 10.044952-21.26019l6.192762-20.041143c0.877714-3.364571 2.048-9.654857 3.754667-18.822095v-6.241524l5.022476-32.621714 6.241524-42.666667h777.069714v0.048762h0.048762zM848.457143 95.427048a119.954286 119.954286 0 0 0 41.398857-7.558096c13.507048-5.022476 24.673524-12.53181 33.938286-22.625523 9.898667-10.044952 17.895619-20.72381 23.747047-32.524191a106.983619 106.983619 0 0 0 5.705143-60.806095c-1.219048-7.070476-3.218286-13.653333-5.705143-19.504762-5.851429-11.605333-13.848381-22.918095-23.747047-33.743238-9.264762-9.118476-20.431238-16.384-33.938286-21.406476-12.434286-5.802667-26.331429-8.630857-41.155048-8.630857-15.164952 0-29.013333 2.82819-41.447619 8.630857a106.203429 106.203429 0 0 0-32.670476 21.406476 121.465905 121.465905 0 0 0-22.528 33.792 93.476571 93.476571 0 0 0-8.874667 40.228571c0 6.582857 0.682667 13.312 1.950477 19.943619 1.26781 6.729143 3.510857 13.360762 6.92419 20.089905 4.924952 11.800381 12.678095 22.479238 22.528 32.524191 4.242286 5.217524 9.264762 9.45981 15.116191 13.214476 5.851429 3.754667 11.702857 6.777905 17.554285 9.411047a87.478857 87.478857 0 0 0 26.819048 6.777905c4.632381 0.633905 9.411048 0.78019 14.628571 0.780191H848.457143z m-472.405333 2.535619c14.189714 0 27.989333-2.535619 41.398857-7.558096 12.53181-5.022476 23.79581-12.580571 33.792-22.625523 5.022476-4.87619 9.45981-10.24 13.165714-15.60381 3.705905-5.461333 6.826667-11.117714 9.362286-16.920381 5.851429-13.360762 8.777143-26.86781 8.777143-40.862476 0-13.653333-2.925714-26.86781-8.777143-39.302095a119.905524 119.905524 0 0 0-22.625524-33.938286c-9.898667-9.118476-21.455238-16.481524-34.425905-21.845333a102.546286 102.546286 0 0 0-40.667428-8.143238c-15.11619 0-28.867048 2.486857-41.398858 7.509333a134.92419 134.92419 0 0 0-33.840762 22.479238 119.369143 119.369143 0 0 0-22.576761 33.938286 104.838095 104.838095 0 0 0-7.509334 39.497143c0 13.799619 2.486857 27.306667 7.509334 40.667428a94.598095 94.598095 0 0 0 9.411047 16.969143c3.705905 5.36381 8.143238 10.727619 13.116953 15.701333a69.729524 69.729524 0 0 0 11.215238 8.777143l10.093714 7.558095c4.193524 2.389333 8.338286 4.388571 12.483048 6.144 3.413333 0.975238 6.777905 1.901714 10.093714 3.120762a39.302095 39.302095 0 0 0 9.99619 2.535619c3.413333 0.487619 6.92419 0.78019 10.630096 1.26781a87.771429 87.771429 0 0 0 10.776381 0.633905z"  horiz-adv-x="1121" />

    
    <glyph glyph-name="iconorder" unicode="&#58904;" d="M663.273 709.818a23.273 23.273 0 0 0 0 46.546h58.182A116.364 116.364 0 0 0 837.818 640v-512a116.364 116.364 0 0 0-116.363-116.364h-418.91A116.364 116.364 0 0 0 186.182 128V640a116.364 116.364 0 0 0 116.363 116.364h58.182a23.273 23.273 0 1 0 0-46.546h-58.182A69.818 69.818 0 0 1 232.727 640v-512a69.818 69.818 0 0 1 69.818-69.818h418.91A69.818 69.818 0 0 1 791.273 128V640a69.818 69.818 0 0 1-69.818 69.818h-58.182zM349.09 360.727a23.273 23.273 0 1 0 0 46.546h325.82a23.273 23.273 0 1 0 0-46.546H349.09z m0-162.909a23.273 23.273 0 1 0 0 46.546h325.82a23.273 23.273 0 1 0 0-46.546H349.09z m0 325.818a23.273 23.273 0 0 0 0 46.546h325.82a23.273 23.273 0 1 0 0-46.546H349.09z m116.365 186.182a23.273 23.273 0 0 0 0 46.546h93.09a23.273 23.273 0 1 0 0-46.546h-93.09z"  horiz-adv-x="1024" />

    


  </font>
</defs>
</svg>
